<svg id="visual" viewBox="0 0 900 600" width="900" height="600" xmlns="http://www.w3.org/2000/svg" xmlns:xlink="http://www.w3.org/1999/xlink" version="1.1"><rect width="900" height="600" fill="#001829"></rect><g><g transform="translate(303 598)"><path d="M0 -147L127.3 -73.5L127.3 73.5L0 147L-127.3 73.5L-127.3 -73.5Z" fill="#297EA6"></path></g><g transform="translate(869 147)"><path d="M0 -84L72.7 -42L72.7 42L0 84L-72.7 42L-72.7 -42Z" fill="#297EA6"></path></g><g transform="translate(51 20)"><path d="M0 -88L76.2 -44L76.2 44L0 88L-76.2 44L-76.2 -44Z" fill="#297EA6"></path></g><g transform="translate(28 358)"><path d="M0 -81L70.1 -40.5L70.1 40.5L0 81L-70.1 40.5L-70.1 -40.5Z" fill="#297EA6"></path></g><g transform="translate(438 58)"><path d="M0 -98L84.9 -49L84.9 49L0 98L-84.9 49L-84.9 -49Z" fill="#297EA6"></path></g><g transform="translate(699 459)"><path d="M0 -143L123.8 -71.5L123.8 71.5L0 143L-123.8 71.5L-123.8 -71.5Z" fill="#297EA6"></path></g></g></svg>